<?xml version="1.0" encoding="utf-8"?>
<!DOCTYPE svg PUBLIC "-//W3C//DTD SVG 1.1//EN" "http://www.w3.org/Graphics/SVG/1.1/DTD/svg11.dtd">
<svg version="1.1" id="Layer_1" xmlns="http://www.w3.org/2000/svg" xmlns:xlink="http://www.w3.org/1999/xlink" x="0px" y="0px"
	 width="64px" height="64px" viewBox="0 0 64 64" enable-background="new 0 0 64 64" xml:space="preserve">
<g>
	<path fill="#FFFFFF" d="M57.854,19.833c3-7,6-12.625,6-12.625l-8.125-6.375c0,0-2.625,0.188-2.934,0.208
		C43.69,14.291,43.845,30.242,43.892,32c-0.047,1.758-0.201,17.709,8.904,30.959c0.309,0.021,2.934,0.208,2.934,0.208l8.125-6.375
		c0,0-3-5.625-6-12.625c-3.125,0.5-5.965,0.558-5.965,0.558S50.322,40.77,50.231,32c0.091-8.77,1.658-12.725,1.658-12.725
		S54.729,19.333,57.854,19.833z"/>
	<path fill="#FFFFFF" d="M34.312,17H2.646c-1.381,0-2.5,1.119-2.5,2.5s1.119,2.5,2.5,2.5h31.666c1.381,0,2.5-1.119,2.5-2.5
		S35.692,17,34.312,17z"/>
	<path fill="#FFFFFF" d="M34.312,28.667H12.979c-1.381,0-2.5,1.119-2.5,2.5s1.119,2.5,2.5,2.5h21.333c1.381,0,2.5-1.119,2.5-2.5
		S35.692,28.667,34.312,28.667z"/>
	<path fill="#FFFFFF" d="M34.312,40.334H23.646c-1.381,0-2.5,1.119-2.5,2.5s1.119,2.5,2.5,2.5h10.666c1.381,0,2.5-1.119,2.5-2.5
		S35.692,40.334,34.312,40.334z"/>
</g>
</svg>
